<?xml version="1.0" ?><!DOCTYPE svg  PUBLIC '-//W3C//DTD SVG 1.1//EN'  'http://www.w3.org/Graphics/SVG/1.1/DTD/svg11.dtd'><svg viewBox="0 0 512 512" xmlns="http://www.w3.org/2000/svg" xmlns:xlink="http://www.w3.org/1999/xlink"><style>:root>svg{display:none}:root>svg:target{display:block}</style><svg viewBox="0 0 512 512" id="close_round_icon" xmlns="http://www.w3.org/2000/svg"><path d="M437.5 386.6L306.9 256l130.6-130.6c14.1-14.1 14.1-36.8 0-50.9-14.1-14.1-36.8-14.1-50.9 0L256 205.1 125.4 74.5c-14.1-14.1-36.8-14.1-50.9 0-14.1 14.1-14.1 36.8 0 50.9L205.1 256 74.5 386.6c-14.1 14.1-14.1 36.8 0 50.9 14.1 14.1 36.8 14.1 50.9 0L256 306.9l130.6 130.6c14.1 14.1 36.8 14.1 50.9 0 14-14.1 14-36.9 0-50.9z"/></svg><svg fill="none" viewBox="0 0 24 24" id="menu_burger_horizontal_icon" xmlns="http://www.w3.org/2000/svg"><g clip-path="url(#bclip0_105_1724)"><path d="M3 6.001h18m-18 6h18m-18 6h18"/></g><defs><clipPath id="bclip0_105_1724"><path fill="#fff" transform="translate(0 .001)" d="M0 0h24v24H0z"/></clipPath></defs></svg></svg>